<?xml version="1.0" encoding="utf-8"?>
<!-- Generator: Adobe Illustrator 18.0.0, SVG Export Plug-In . SVG Version: 6.00 Build 0)  -->
<!DOCTYPE svg PUBLIC "-//W3C//DTD SVG 1.1//EN" "http://www.w3.org/Graphics/SVG/1.1/DTD/svg11.dtd">
<svg version="1.1" id="Layer_1" xmlns="http://www.w3.org/2000/svg" xmlns:xlink="http://www.w3.org/1999/xlink" x="0px" y="0px"
	 width="512px" height="512px" viewBox="0 0 512 512" enable-background="new 0 0 512 512" xml:space="preserve">
<g id="XMLID_2242_">
	<g id="XMLID_2950_">
		<circle id="XMLID_690_" fill="#F6838D" cx="256" cy="44.2" r="34.2"/>
	</g>
	<g id="XMLID_2986_">
		<circle id="XMLID_686_" fill="#FFCB7C" cx="57.8" cy="387.6" r="34.2"/>
	</g>
	<g id="XMLID_2247_">
		<circle id="XMLID_674_" fill="#91DEF5" cx="454.2" cy="387.6" r="34.2"/>
	</g>
	<g id="XMLID_713_">
		<path id="XMLID_716_" d="M481.3,352.6c9-25.5,13.6-52.2,13.6-79.5c0-47.8-14.1-94-40.7-133.5c-3.1-4.6-9.3-5.8-13.9-2.7
			c-4.6,3.1-5.8,9.3-2.7,13.9c24.4,36.2,37.3,78.5,37.3,122.3c0,24.4-4,48.3-11.8,71.1c-18.1-3.7-37.4,4.3-47.1,21.2
			c-9.7,16.9-7.1,37.5,5.2,51.4C379.4,464.7,319.8,492,256,492s-123.4-27.3-165.1-75.2c12.2-13.9,14.9-34.5,5.2-51.4
			c-9.7-16.9-29-24.9-47.1-21.2c-7.8-22.8-11.8-46.7-11.8-71.1c0-104.4,75.4-195.1,177-214.9c5.9,17.5,22.4,30.2,41.9,30.2
			c19.5,0,36.1-12.7,41.9-30.2c28.2,5.5,54.7,16.3,78.8,32.3c1.7,1.1,3.6,1.7,5.5,1.7c3.2,0,6.4-1.6,8.3-4.5
			c3.1-4.6,1.8-10.8-2.8-13.9c-26.9-17.8-56.5-29.8-88-35.6C296.9,16.7,278.4,0,256,0s-40.9,16.7-43.8,38.3
			c-52.8,9.8-101.1,37.4-136.6,78.3c-37.7,43.4-58.5,99-58.5,156.6c0,27.3,4.6,54,13.6,79.5c-7.6,5.9-13.1,14-15.6,23.5
			c-3.1,11.4-1.5,23.3,4.4,33.6c8.2,14.2,23.1,22.1,38.4,22.1c5.6,0,11.3-1.1,16.7-3.3C120.1,481.7,185.7,512,256,512
			c70.3,0,135.9-30.3,181.4-83.5c5.4,2.2,11.1,3.3,16.7,3.3c15.3,0,30.2-7.9,38.4-22.1C503.7,390.3,498.5,365.9,481.3,352.6
			L481.3,352.6z M256,20c13.4,0,24.2,10.9,24.2,24.2S269.4,68.5,256,68.5s-24.2-10.9-24.2-24.2S242.7,20,256,20z M36.8,399.7
			c-3.2-5.6-4.1-12.1-2.4-18.4c1.7-6.3,5.7-11.5,11.3-14.7c3.8-2.2,8-3.2,12.1-3.2c8.4,0,16.5,4.3,21,12.1
			c3.2,5.6,4.1,12.1,2.4,18.4c-1.7,6.3-5.7,11.5-11.3,14.7C58.3,415.2,43.5,411.2,36.8,399.7z M475.2,399.7
			c-6.7,11.6-21.5,15.5-33.1,8.9c-5.6-3.2-9.6-8.5-11.3-14.7c-1.7-6.3-0.8-12.8,2.4-18.4c4.5-7.8,12.6-12.1,21-12.1
			c4.1,0,8.3,1,12.1,3.2c5.6,3.2,9.6,8.5,11.3,14.7C479.3,387.5,478.5,394.1,475.2,399.7z"/>
		<path id="XMLID_723_" d="M417.2,120.6c2.6,0,5.2-1.1,7.1-2.9s2.9-4.4,2.9-7.1s-1.1-5.2-2.9-7.1c-1.9-1.9-4.4-2.9-7.1-2.9
			s-5.2,1.1-7.1,2.9c-1.9,1.9-2.9,4.4-2.9,7.1c0,2.6,1.1,5.2,2.9,7.1S414.5,120.6,417.2,120.6z"/>
	</g>
</g>
</svg>
