<?xml version="1.0" encoding="utf-8"?>
<!-- Generator: Adobe Illustrator 18.0.0, SVG Export Plug-In . SVG Version: 6.00 Build 0)  -->
<!DOCTYPE svg PUBLIC "-//W3C//DTD SVG 1.1//EN" "http://www.w3.org/Graphics/SVG/1.1/DTD/svg11.dtd">
<svg version="1.1" id="Layer_1" xmlns="http://www.w3.org/2000/svg" xmlns:xlink="http://www.w3.org/1999/xlink" x="0px" y="0px"
	 width="188px" height="173.5px" viewBox="0 0 188 173.5" enable-background="new 0 0 188 173.5" xml:space="preserve">
<g>
	<path d="M42.5,167.7L42.5,167.7l-33-0.1L8,166c-0.6-0.6-2.1-2-2-4.4c0.2-4.2,0.3-8.6,0.4-12.8c0.2-10,0.4-20.3,1.6-30.5
		c2.4-20.6,13.7-31.9,35.7-35.7c9.1-1.6,18.4-2.4,27.4-3.2l2.3-0.2c17.7-1.6,33.2-9.4,47.4-24C130.8,45,139,33,145.9,18.5
		c3.5-7.4,9.8-11.6,17.3-11.6c1.9,0,3.8,0.3,5.7,0.8c5.2,1.4,9.5,4.6,11.9,9.1c2.5,4.6,2.9,10.2,1.2,15.7
		c-12.1,37.9-31.7,65.4-60.1,84c-0.2,0.3-0.4,0.9-0.4,1.3c-0.1,11.3-0.1,22.4-0.1,34.2c0,3.5,0,15.7,0,15.7H42.5z"/>
	<path fill="#FFFFFF" d="M163.2,11.9c1.4,0,2.9,0.2,4.5,0.6c8.1,2.2,12.4,9.8,9.6,18.4c-10.6,33.4-28.3,61.9-58.3,81.5
		c-1.4,0.9-2.5,3.4-2.5,5.2c-0.2,14.8-0.1,29.6-0.1,45c-23.4,0-46,0-69.1,0c-0.5-8.7-0.9-17.3-1.4-26.2c-2.2-0.1-3.9-0.2-6.2-0.3
		c-0.5,8.9-0.9,17.5-1.4,26.3c-9,0-17.8,0-26.4,0c-0.3-0.3-0.7-0.6-0.7-0.8c0.6-14.3,0.3-28.7,1.9-42.9c2.1-18.6,12.1-28,31.5-31.3
		c9.7-1.6,19.5-2.4,29.2-3.3c20.3-1.8,36.6-11.2,50.5-25.5c10.9-11.2,19.4-24.1,26.1-38.2C153.1,15,157.6,11.9,163.2,11.9
		 M163.2,1.9L163.2,1.9c-9.5,0-17.4,5.3-21.8,14.5c-6.6,13.9-14.5,25.5-24.2,35.4c-13.4,13.7-27.8,21.1-44.3,22.5l-2.3,0.2
		c-9.1,0.8-18.5,1.6-27.8,3.2C18.7,81.9,5.7,95,3.1,117.8c-1.2,10.4-1.4,20.8-1.6,30.9c-0.1,4.2-0.2,8.5-0.4,12.7
		c-0.1,2.1,0.4,5.2,3.3,8l2.8,3.2h4.6h26l0,0.1h9.5h69.1h10v-10c0-3.6,0-7.2,0-10.7c0-11.2,0-21.8,0.1-32.5
		c28.4-19.3,48.2-47.3,60.4-85.5c2.2-6.8,1.6-13.8-1.6-19.6c-3.1-5.7-8.4-9.8-15-11.5C167.8,2.2,165.5,1.9,163.2,1.9L163.2,1.9z"/>
</g>
<g>
	<path d="M71.2,81.4c-10,0-19.4-4-26.5-11.3c-7.1-7.2-10.9-16.6-10.7-26.4C34.2,23.3,51,6.7,71.2,6.7h0.1c9.9,0,19.3,4,26.4,11.2
		c7.1,7.2,10.9,16.6,10.9,26.5c-0.2,20-17.3,37-37.3,37H71.2z"/>
	<path fill="#FFFFFF" d="M71.2,11.7c0,0,0.1,0,0.1,0c17.7,0.1,32.4,14.9,32.2,32.7c-0.2,17.5-14.8,32-32.3,32c0,0-0.1,0-0.1,0
		c-17.7-0.1-32.5-15-32.2-32.6C39.2,26.2,53.8,11.7,71.2,11.7 M71.2,1.7L71.2,1.7c-23,0-41.9,18.8-42.3,41.9
		c-0.2,11.2,4.2,21.8,12.2,30c8.1,8.2,18.7,12.8,30,12.8l0.1,0c11.1,0,21.6-4.4,29.7-12.4c8-8,12.5-18.5,12.6-29.6
		c0.1-11.3-4.3-21.9-12.3-30.1c-8-8.1-18.6-12.6-29.9-12.7L71.2,1.7L71.2,1.7z"/>
</g>
</svg>
