<?xml version="1.0" encoding="utf-8"?>
<!-- Generator: Adobe Illustrator 18.0.0, SVG Export Plug-In . SVG Version: 6.00 Build 0)  -->
<!DOCTYPE svg PUBLIC "-//W3C//DTD SVG 1.1//EN" "http://www.w3.org/Graphics/SVG/1.1/DTD/svg11.dtd">
<svg version="1.1" id="Layer_1" xmlns="http://www.w3.org/2000/svg" xmlns:xlink="http://www.w3.org/1999/xlink" x="0px" y="0px"
	 width="88px" height="39.8px" viewBox="0 0 88 39.8" enable-background="new 0 0 88 39.8" xml:space="preserve">
<path d="M20.4,29.5c-1.8,0.7-13.9-5.3-17.9-9.2c-0.7-0.7-0.3-3.8,0.6-4.7c0.9-0.9,3.8-1.1,4.7-0.3c4,3.7,7.7,7.8,11.4,11.8
	C19.6,27.4,19.7,27.9,20.4,29.5z"/>
<path d="M34.3,22.1c-1.7-0.8-5.8-13.7-5.8-19.3c0-1,2.5-2.9,3.9-2.8c1.2,0,3.4,2,3.4,3.2c0.1,5.5-0.3,11-0.6,16.4
	C35.3,20.1,35,20.5,34.3,22.1z"/>
<path d="M53.5,24.9c-1.1-1.6,2-14.7,4.9-19.5c0.5-0.9,3.6-1.1,4.8-0.4c1,0.6,1.9,3.5,1.3,4.5c-2.7,4.8-5.9,9.3-8.9,13.8
	C55.4,23.6,54.9,23.9,53.5,24.9z"/>
<path d="M64.4,39.6c0.3-1.9,11.2-9.8,16.5-11.5c1-0.3,3.5,1.5,3.9,2.8c0.4,1.2-0.8,3.9-1.9,4.3c-5.2,1.8-10.5,3.1-15.8,4.6
	C66.6,39.8,66.1,39.7,64.4,39.6z"/>
</svg>
