<?xml version="1.0" encoding="utf-8"?>
<!-- Generator: Adobe Illustrator 18.0.0, SVG Export Plug-In . SVG Version: 6.00 Build 0)  -->
<!DOCTYPE svg PUBLIC "-//W3C//DTD SVG 1.1//EN" "http://www.w3.org/Graphics/SVG/1.1/DTD/svg11.dtd">
<svg version="1.1" id="Layer_1" xmlns="http://www.w3.org/2000/svg" xmlns:xlink="http://www.w3.org/1999/xlink" x="0px" y="0px"
	 width="189.7px" height="173.6px" viewBox="0 0 189.7 173.6" enable-background="new 0 0 189.7 173.6" xml:space="preserve">
<g>
	<path d="M67.1,167.6v-5c0-3.6,0-7.2,0-10.7c0-11.8,0-22.9-0.1-34.2c0-0.3-0.2-0.9-0.4-1.3c-28.4-18.6-48.1-46.1-60.1-84
		c-1.8-5.5-1.3-11.1,1.2-15.7c2.4-4.5,6.7-7.7,11.9-9.1c1.9-0.5,3.9-0.8,5.7-0.8c7.5,0,13.8,4.2,17.3,11.6
		c6.8,14.4,15.1,26.5,25.1,36.8c10,10.3,20.5,17.1,32.1,20.9c1.9,0.6,5.1,1.7,9.8,18.8c12.7-14.5,16.9-14.5,18.5-14.5
		c0.2,0,0.5,0,0.7,0c6.2,0.6,11.3,1.3,16,2.1c22,3.7,33.3,15.1,35.7,35.7c1.2,10.2,1.4,20.5,1.6,30.5c0.1,4.2,0.2,8.5,0.4,12.8
		c0.1,2.4-1.4,3.9-1.9,4.4c0,0,0,0,0,0s0,0,0,0l-1.4,1.7h-33l0,0.1H67.1z"/>
	<path fill="#FFFFFF" d="M25.3,11.8c5.5,0,10.1,3,12.8,8.8c6.7,14.1,15.2,27,26.1,38.2c10,10.2,21.1,17.9,34.1,22.2
		c3.5,1.1,8.9,24.8,8.9,24.8s16.2-20.2,20.9-20.2c0.1,0,0.1,0,0.2,0c5.2,0.5,10.4,1.2,15.6,2.1c19.5,3.3,29.4,12.7,31.5,31.3
		c1.6,14.2,1.4,28.6,1.9,42.9c0,0.2-0.4,0.5-0.7,0.8c-8.7,0-17.4,0-26.4,0c-0.5-8.9-0.9-17.5-1.4-26.3c-2.2,0.1-4,0.2-6.2,0.3
		c-0.5,8.9-1,17.4-1.4,26.2c-23.1,0-45.7,0-69.1,0c0-15.4,0.1-30.2-0.1-45c0-1.8-1.1-4.3-2.5-5.2c-30-19.6-47.7-48.1-58.3-81.5
		c-2.8-8.6,1.5-16.3,9.6-18.4C22.4,12,23.9,11.8,25.3,11.8 M25.3,1.8c-2.3,0-4.7,0.3-7,1c-6.6,1.8-11.9,5.8-15,11.5
		C0,20.1-0.5,27,1.7,33.9c12.2,38.2,31.9,66.2,60.4,85.5c0.1,10.7,0.1,21.3,0.1,32.5c0,3.5,0,7.1,0,10.7v10h10h69.1h9.5l0-0.1h26
		h4.6l2.8-3.2c2.9-2.8,3.4-5.9,3.3-8c-0.2-4.2-0.3-8.5-0.4-12.7c-0.2-10.1-0.5-20.5-1.6-30.9c-2.6-22.8-15.6-35.9-39.8-40
		c-4.8-0.8-10-1.5-16.3-2.1c-0.4,0-0.8-0.1-1.2-0.1c-4.7,0-9.2,2.6-16.3,9.8c-2.7-7.8-5.5-12.3-10.5-13.9
		c-10.8-3.5-20.6-9.9-30.1-19.6c-9.7-9.9-17.6-21.5-24.2-35.4C42.7,7,34.8,1.8,25.3,1.8L25.3,1.8z"/>
</g>
<g>
	<path d="M117,80.5c-20.1,0-37.1-16.9-37.3-37c-0.1-9.9,3.8-19.3,10.9-26.5C97.7,9.8,107.1,5.9,117,5.8c20.4,0,37.1,16.6,37.4,37
		c0.1,9.8-3.7,19.2-10.8,26.4C136.4,76.5,127,80.5,117,80.5L117,80.5z"/>
	<path fill="#FFFFFF" d="M117.1,10.8c17.5,0,32.1,14.5,32.3,32c0.2,17.6-14.6,32.6-32.3,32.6c0,0,0,0-0.1,0
		c-17.5,0-32.1-14.6-32.3-32C84.6,25.7,99.3,10.9,117.1,10.8C117,10.8,117.1,10.8,117.1,10.8 M117.1,0.8v10V0.8L117.1,0.8L117.1,0.8
		L117.1,0.8c-11.3,0-21.9,4.5-30,12.6C79,21.6,74.7,32.3,74.7,43.5c0.1,11.1,4.6,21.6,12.6,29.6c8,8,18.6,12.4,29.7,12.4l0.1,0
		c11.3,0,21.9-4.6,30-12.8c8-8.2,12.4-18.8,12.2-30C159.1,19.6,140.1,0.8,117.1,0.8L117.1,0.8z"/>
</g>
</svg>
